<?xml version="1.0" encoding="iso-8859-1"?>
<!-- Generator: Adobe Illustrator 19.0.0, SVG Export Plug-In . SVG Version: 6.00 Build 0)  -->
<svg version="1.1" id="Capa_1" xmlns="http://www.w3.org/2000/svg" xmlns:xlink="http://www.w3.org/1999/xlink" x="0px" y="0px"
	 viewBox="0 0 409.6 409.6" style="enable-background:new 0 0 409.6 409.6;" xml:space="preserve">
<g>
	<g>
		<path d="M204.8,0C91.873,0,0,91.873,0,204.8s91.873,204.8,204.8,204.8s204.8-91.873,204.8-204.8S317.727,0,204.8,0z
			 M204.8,395.947c-105.4,0-191.147-85.748-191.147-191.147S99.4,13.653,204.8,13.653S395.947,99.401,395.947,204.8
			S310.2,395.947,204.8,395.947z"/>
	</g>
</g>
<g>
	<g>
		<path d="M204.8,27.307c-97.874,0-177.493,79.623-177.493,177.493c0,3.77,3.053,6.827,6.827,6.827s6.827-3.057,6.827-6.827
			c0-90.342,73.499-163.84,163.84-163.84c3.773,0,6.827-3.057,6.827-6.827S208.573,27.307,204.8,27.307z"/>
	</g>
</g>
<g>
	<g>
		<path d="M328.508,190.319c0-0.002,0-0.002,0-0.002L212.454,74.264c-7.98-7.975-20.966-7.984-28.96,0.002
			c-3.867,3.867-6.001,9.011-6.001,14.481c0,5.472,2.133,10.615,5.999,14.481l81.094,81.092h-155.36
			c-11.293,0-20.48,9.187-20.48,20.48s9.187,20.48,20.48,20.48h155.36l-81.092,81.092c-3.867,3.867-6.001,9.011-6.001,14.481
			c0,5.472,2.133,10.615,6.001,14.483c3.872,3.867,9.013,5.997,14.479,5.997s10.607-2.13,14.481-5.999l116.053-116.057
			c3.867-3.869,6.001-9.011,6.001-14.479C334.508,199.33,332.375,194.19,328.508,190.319z M318.853,209.626L202.8,325.68
			c-2.574,2.58-7.079,2.58-9.653,0c-1.287-1.289-2-3.004-2-4.826s0.713-3.538,2-4.828l92.747-92.745
			c1.952-1.951,2.54-4.888,1.48-7.438c-1.053-2.551-3.546-4.215-6.306-4.215H109.227c-3.767,0-6.827-3.062-6.827-6.827
			s3.06-6.827,6.827-6.827h171.841c2.76,0,5.253-1.664,6.306-4.215c1.06-2.55,0.474-5.485-1.48-7.438l-92.747-92.747
			c-1.287-1.289-2-3.004-2-4.826c0-1.823,0.713-3.538,2-4.826c2.666-2.661,6.987-2.659,9.653-0.002L318.853,199.97
			c1.287,1.292,2,3.007,2,4.828C320.853,206.619,320.14,208.334,318.853,209.626z"/>
	</g>
</g>
<g>
</g>
<g>
</g>
<g>
</g>
<g>
</g>
<g>
</g>
<g>
</g>
<g>
</g>
<g>
</g>
<g>
</g>
<g>
</g>
<g>
</g>
<g>
</g>
<g>
</g>
<g>
</g>
<g>
</g>
</svg>
