<?xml version="1.0" encoding="iso-8859-1"?>
<!-- Generator: Adobe Illustrator 19.0.0, SVG Export Plug-In . SVG Version: 6.00 Build 0)  -->
<svg version="1.1" id="Layer_1" xmlns="http://www.w3.org/2000/svg" xmlns:xlink="http://www.w3.org/1999/xlink" x="0px" y="0px"
	 viewBox="0 0 512 512" style="enable-background:new 0 0 512 512;" xml:space="preserve">
<g>
	<g>
		<path d="M503.916,59.283H381.019c-6.062-24.718-28.396-43.116-54.955-43.116H185.937c-26.56,0-48.894,18.397-54.955,43.116H8.084
			C3.62,59.283,0,62.901,0,67.367v355.705c0,0.126,0.013,0.248,0.018,0.372c0.004,0.092,0.006,0.183,0.014,0.276
			c0.028,0.354,0.074,0.701,0.147,1.04c0.001,0.005,0.001,0.011,0.002,0.016c0.004,0.018,0.011,0.035,0.015,0.052
			c0.073,0.33,0.169,0.65,0.281,0.963c0.024,0.066,0.046,0.132,0.072,0.197c0.252,0.652,0.586,1.261,0.991,1.819
			c0.048,0.067,0.097,0.132,0.147,0.197c0.2,0.259,0.411,0.509,0.64,0.742c0.01,0.01,0.017,0.021,0.027,0.03
			c0.239,0.241,0.499,0.461,0.767,0.67c0.064,0.05,0.127,0.096,0.192,0.143c0.257,0.189,0.523,0.364,0.801,0.522
			c0.022,0.012,0.04,0.026,0.061,0.038c0.307,0.17,0.63,0.317,0.96,0.446c0.058,0.023,0.117,0.043,0.177,0.065
			c0.306,0.112,0.62,0.208,0.942,0.282c0.025,0.005,0.048,0.016,0.074,0.023l0.089,0.019c0.017,0.003,0.034,0.009,0.053,0.012
			l290.889,64.642c0.013,0.003,0.026,0.003,0.039,0.006c0.226,0.049,0.458,0.085,0.691,0.114c0.056,0.008,0.113,0.019,0.17,0.026
			c0.212,0.023,0.428,0.03,0.645,0.036c0.07,0.002,0.142,0.012,0.212,0.012c0.004,0,0.01-0.001,0.014-0.001h204.784
			c4.466,0,8.084-3.62,8.084-8.084V67.369C512,62.901,508.382,59.283,503.916,59.283z M26.996,418.992l67.713-50.785
			l160.819,101.569L26.996,418.992z M495.832,479.662H301.455L156.389,388.04h250.178c4.427,0,8.287-3.41,8.419-7.835
			c0.138-4.578-3.532-8.333-8.081-8.333H130.788l-32.156-20.309c-2.836-1.791-6.485-1.645-9.167,0.368l-73.297,54.973V75.451
			h113.247c1.412,29.957,26.221,53.895,56.522,53.895h68.01c4.465,0,8.084-3.62,8.084-8.084c0-4.465-3.62-8.084-8.084-8.084h-67.251
			c-22.073,0-40.646-17.38-41.168-39.448c-0.538-22.732,17.797-41.394,40.409-41.394h139.369c22.073,0,40.646,17.38,41.168,39.448
			c0.537,22.731-17.798,41.394-40.41,41.394h-27.991c-4.465,0-8.084,3.62-8.084,8.084c0,4.465,3.62,8.084,8.084,8.084h27.991
			c30.3,0,55.109-23.938,56.522-53.895h113.247V479.662z"/>
	</g>
</g>
<g>
	<g>
		<path d="M406.905,156.293H105.095c-4.465,0-8.084,3.618-8.084,8.084c0,4.465,3.62,8.084,8.084,8.084h301.811
			c4.466,0,8.084-3.62,8.084-8.084C414.989,159.913,411.371,156.293,406.905,156.293z"/>
	</g>
</g>
<g>
	<g>
		<path d="M406.905,210.188H61.979c-4.465,0-8.084,3.62-8.084,8.084c0,4.465,3.62,8.084,8.084,8.084h344.926
			c4.466,0,8.084-3.62,8.084-8.084C414.989,213.807,411.371,210.188,406.905,210.188z"/>
	</g>
</g>
<g>
	<g>
		<path d="M406.905,264.083H61.979c-4.465,0-8.084,3.62-8.084,8.084c0,4.465,3.62,8.084,8.084,8.084h344.926
			c4.466,0,8.084-3.62,8.084-8.084C414.989,267.702,411.371,264.083,406.905,264.083z"/>
	</g>
</g>
<g>
	<g>
		<path d="M406.905,317.977H61.979c-4.465,0-8.084,3.62-8.084,8.084c0,4.465,3.62,8.084,8.084,8.084h344.926
			c4.466,0,8.084-3.62,8.084-8.084C414.989,321.597,411.371,317.977,406.905,317.977z"/>
	</g>
</g>
<g>
</g>
<g>
</g>
<g>
</g>
<g>
</g>
<g>
</g>
<g>
</g>
<g>
</g>
<g>
</g>
<g>
</g>
<g>
</g>
<g>
</g>
<g>
</g>
<g>
</g>
<g>
</g>
<g>
</g>
</svg>
